<svg preserveAspectRatio="none" width="100%" height="100%" overflow="visible" style="display: block;" viewBox="0 0 18.4142 14.7071" fill="none" xmlns="http://www.w3.org/2000/svg">
<path id="Vector 10" d="M1.41421 9L0.707107 8.29289L2.75711e-08 9L0.707107 9.70711L1.41421 9ZM18.4142 1C18.4142 0.447715 17.9665 0 17.4142 0C16.8619 0 16.4142 0.447715 16.4142 1H17.4142H18.4142ZM6.41421 4L5.70711 3.29289L0.707107 8.29289L1.41421 9L2.12132 9.70711L7.12132 4.70711L6.41421 4ZM1.41421 9L0.707107 9.70711L5.70711 14.7071L6.41421 14L7.12132 13.2929L2.12132 8.29289L1.41421 9ZM1.41421 9V10H11.4142V9V8H1.41421V9ZM17.4142 3H18.4142V1H17.4142H16.4142V3H17.4142ZM11.4142 9V10C15.2802 10 18.4142 6.86599 18.4142 3H17.4142H16.4142C16.4142 5.76142 14.1756 8 11.4142 8V9Z" fill="var(--stroke-0, #33363F)"/>
</svg>
